<?xml version="1.0" encoding="utf-8"?>
<!-- Generator: Adobe Illustrator 16.0.3, SVG Export Plug-In . SVG Version: 6.00 Build 0)  -->
<!DOCTYPE svg PUBLIC "-//W3C//DTD SVG 1.0//EN" "http://www.w3.org/TR/2001/REC-SVG-20010904/DTD/svg10.dtd">
<svg version="1.0" id="Layer_1" xmlns="http://www.w3.org/2000/svg" xmlns:xlink="http://www.w3.org/1999/xlink" x="0px" y="0px"
	 width="100px" height="100px" viewBox="0 0 100 100" enable-background="new 0 0 100 100" xml:space="preserve">
<g>
	<path fill="#FFFFFF" stroke="#000000" stroke-width="1.7798" stroke-miterlimit="10" d="M69.2,21.3c0,0-6.1-2.5-4.7-6.7
		c1.7-5.1,7-4.4,7-4.4s9-1.4,10.1,5.4c0.2,1.7,0.4,5.2-2.2,7.4C79.1,23.6,78.8,40,78.8,40s0.5,7.2,0,8c-0.5,0.8-1.7,6-19.1,2.5
		c0,0-13.3-3.1-15.9-2.7C41.1,48.2,40,33.1,41.4,32c1.4-1.1,12.3-0.7,13.3-0.5c1,0.2,6,3.7,6.6,4.1c0.6,0.4,5.3,1.6,5.8,1.2
		C67.7,36.5,69.2,21.3,69.2,21.3z"/>
	<path fill="#FFFFFF" stroke="#000000" stroke-width="1.7798" stroke-miterlimit="10" d="M26.3,32.6c0,0-1.8,15.4,0.6,16.2
		c2.4,0.8,9.6,2.9,14.5,3.3c4.9,0.4,10-1.2,10-1.2s6.6-3.8,6.3-10.8c0.1-0.1-0.5-6.7-6.2-6.3c-3.5,0.6-5.1,1.4-5.1,1.4
		s-6.6,2-11.5,0.2c0,0.1-0.9-4.3-0.9-4.3l1.7-1c0,0,1.7-1.5,1.8-3.5c0.1-2,0.6-4.9-0.5-5.5c-1.8-0.8-5.7-1.8-8.5-1.8
		c-2.8,0-7.9-0.8-8.9,1.3s-1.3,9.3,0.4,10C21.7,31.4,26.3,32.6,26.3,32.6z"/>
	<path fill="#FFFFFF" stroke="#000000" stroke-width="1.7798" stroke-miterlimit="10" d="M51.3,56.2c-0.9-0.2-10.4-2.1-15.2-1.4
		c-4.9,0.6-8,0.5-9.9,0.6c-1.9,0.2-3.3,3.8-3,6.3s1.5,14.8,1.5,14.8s-11.3,7.6,1.7,11.9c8.9,1.8,10-0.2,10.5-1.6
		c0.5-1.4-1.2-18.9-1.2-18.9l14.1,0.4c0,0,5.1,1.2,5.3-5.8C55.2,57,52.1,56.4,51.3,56.2z"/>
	<path fill="#FFFFFF" stroke="#000000" stroke-width="1.7798" stroke-miterlimit="10" d="M44.2,71c0,0-3.1-5,0.5-13.8
		c0-0.2,1.8-3.8,9.7-3.3c1.8,0.2,17.2,2.6,20.5,2.8c2.1,2.8,1.8,9.8,1.9,22c0,0,8.2-2.5,8.5,4.8c0.3,7.3-7.7,7.8-9.9,8.4
		c-2.2,0.6-9.2-1.5-9.7-3.5c-0.6-2,0.4-3,0.4-3s-0.4-15.6-1.2-16.1c-0.8-0.5-2.4,0.2-5.6,1.1C53.8,71.9,46.2,74.2,44.2,71z"/>
	<path fill="#FFFFFF" stroke="#000000" stroke-width="1.7798" stroke-miterlimit="10" d="M36.7,15.5c0,0,4.7-16.3,19.3-8.9
		c0,0,7.7,4.7,4.7,13.1c0,0.3-2.4,10.4-13.6,9.2C47.1,29.2,34.6,27.7,36.7,15.5z"/>
</g>
</svg>
