<?xml version="1.0" encoding="utf-8"?>
<!-- Generator: Adobe Illustrator 16.0.3, SVG Export Plug-In . SVG Version: 6.00 Build 0)  -->
<!DOCTYPE svg PUBLIC "-//W3C//DTD SVG 1.1//EN" "http://www.w3.org/Graphics/SVG/1.1/DTD/svg11.dtd">
<svg version="1.1" id="Layer_1" xmlns="http://www.w3.org/2000/svg" xmlns:xlink="http://www.w3.org/1999/xlink" x="0px" y="0px"
	 width="1728px" height="1296px" viewBox="0 0 1728 1296" enable-background="new 0 0 1728 1296" xml:space="preserve">
<g>
	<polygon fill="#FFFFFF" stroke="#000000" stroke-miterlimit="10" points="737.4,552.8 869.2,552.8 869.2,692.6 976.2,692.6 
		976.2,552.8 1108,552.8 1108,445.7 737.4,445.7 737.4,552.8 	"/>
	<polygon fill="#FFFFFF" stroke="#000000" stroke-miterlimit="10" points="174.8,38.5 67.8,38.5 67.8,145.5 174.8,145.5 174.8,38.5 
			"/>
	<polygon fill="#FFFFFF" stroke="#000000" stroke-miterlimit="10" points="441.8,38.5 201.2,38.5 201.2,145.5 334.8,145.5 
		334.8,282.5 441.8,282.5 441.8,38.5 	"/>
	<polygon fill="#FFFFFF" stroke="#000000" stroke-miterlimit="10" points="1643.2,282.5 1643.2,38.5 1402.8,38.5 1402.8,145.5 
		1536.2,145.5 1536.2,282.5 1643.2,282.5 	"/>
	<polygon fill="#FFFFFF" stroke="#000000" stroke-miterlimit="10" points="174.8,447.5 174.8,310.5 67.8,310.5 67.8,554.5 
		308.2,554.5 308.2,447.5 174.8,447.5 	"/>
	<polygon fill="#FFFFFF" stroke="#000000" stroke-miterlimit="10" points="334.1,1237.7 574.6,1237.7 574.6,1130.6 441.1,1130.6 
		441.1,993.7 334.1,993.7 334.1,1237.7 	"/>
	<polygon fill="#FFFFFF" stroke="#000000" stroke-miterlimit="10" points="334.8,965.3 441.8,965.3 441.8,858.3 308.2,858.3 
		308.2,721.3 201.2,721.3 201.2,965.3 334.8,965.3 	"/>
	<polygon fill="#FFFFFF" stroke="#000000" stroke-miterlimit="10" points="66,1239.4 310,1239.4 310,998.9 203,998.9 203,1132.4 
		66,1132.4 66,1239.4 	"/>
	<polygon fill="#FFFFFF" stroke="#000000" stroke-miterlimit="10" points="1399,1239.4 1643,1239.4 1643,998.9 1536,998.9 
		1536,1132.4 1399,1132.4 1399,1239.4 	"/>
	<polygon fill="#FFFFFF" stroke="#000000" stroke-miterlimit="10" points="-65.8,856.7 -65.8,963.8 67.8,963.8 67.8,1100.7 
		174.8,1100.7 174.8,856.7 -65.8,856.7 	"/>
	<polygon fill="#FFFFFF" stroke="#000000" stroke-miterlimit="10" points="201.2,175.4 201.2,242.9 201.1,242.9 201.1,350 
		201.2,350 201.2,416 308.2,416 308.2,175.4 201.2,175.4 	"/>
	<polygon fill="#FFFFFF" stroke="#000000" stroke-miterlimit="10" points="67.8,172 67.8,279 174.8,279 174.8,172 67.8,172 	"/>
	<polygon fill="#FFFFFF" stroke="#000000" stroke-miterlimit="10" points="574.9,1104.2 574.9,993.7 467.9,993.7 467.9,1104.2 
		574.9,1104.2 	"/>
	<polygon fill="#FFFFFF" stroke="#000000" stroke-miterlimit="10" points="67.8,586 67.8,829 174.8,829 174.8,691.8 440.6,691.8 
		440.6,584.7 68.3,584.7 68.3,586 67.8,586 	"/>
	<polygon fill="#FFFFFF" stroke="#000000" stroke-miterlimit="10" points="1643.2,692.7 1643.2,312.5 1537.9,312.5 1537.9,584 
		1402.7,584 1402.7,693.3 1642,693.3 1642,692.7 1643.2,692.7 	"/>
	<polygon fill="#FFFFFF" stroke="#000000" stroke-miterlimit="10" points="1402.8,172 1402.8,282.3 1509.8,282.3 1509.8,172 
		1402.8,172 	"/>
	<polygon fill="#FFFFFF" stroke="#000000" stroke-miterlimit="10" points="1376.2,35.7 1269.2,35.7 1269.2,281.7 1376.2,281.7 
		1376.2,35.7 	"/>
	<polygon fill="#FFFFFF" stroke="#000000" stroke-miterlimit="10" points="868.8,1242.1 975.8,1242.1 975.8,996.1 868.8,996.1 
		868.8,1242.1 	"/>
	<polygon fill="#FFFFFF" stroke="#000000" stroke-miterlimit="10" points="1376.2,692.6 1376.2,446.6 1269.2,446.6 1269.2,692.6 
		1376.2,692.6 	"/>
	<polygon fill="#FFFFFF" stroke="#000000" stroke-miterlimit="10" points="1509.1,419.4 1509.1,308.9 1269.9,308.9 1269.9,419.4 
		1509.1,419.4 	"/>
	<polygon fill="#FFFFFF" stroke="#000000" stroke-miterlimit="10" points="868.8,831.2 1108,831.2 1108,720.7 868.8,720.7 
		868.8,831.2 	"/>
	<polygon fill="#FFFFFF" stroke="#000000" stroke-miterlimit="10" points="1509.8,446.4 1402.8,446.4 1402.8,556.9 1509.8,556.9 
		1509.8,446.4 	"/>
	<polygon fill="#FFFFFF" stroke="#000000" stroke-miterlimit="10" points="1109.2,693.5 1109.2,583 1002.2,583 1002.2,693.5 
		1109.2,693.5 	"/>
	<polygon fill="#FFFFFF" stroke="#000000" stroke-miterlimit="10" points="1002.2,1241.1 1109.2,1241.1 1109.2,1130.6 
		1002.2,1130.6 1002.2,1241.1 	"/>
	<polygon fill="#FFFFFF" stroke="#000000" stroke-miterlimit="10" points="1269.2,1241.1 1376.2,1241.1 1376.2,1130.6 
		1269.2,1130.6 1269.2,1241.1 	"/>
	<polygon fill="#FFFFFF" stroke="#000000" stroke-miterlimit="10" points="1402.8,1104.2 1509.8,1104.2 1509.8,993.7 1402.8,993.7 
		1402.8,1104.2 	"/>
	<polygon fill="#FFFFFF" stroke="#000000" stroke-miterlimit="10" points="1637,964.9 1637,725.4 1405.1,725.4 1405.1,964.9 
		1637,964.9 	"/>
	<polygon fill="#FFFFFF" stroke="#000000" stroke-miterlimit="10" points="1242.8,40.4 1135.8,40.4 1135.8,554.8 1242.8,554.8 
		1242.8,40.4 	"/>
	<polygon fill="#FFFFFF" stroke="#000000" stroke-miterlimit="10" points="601.8,691.2 708.8,691.2 708.8,307.2 601.8,307.2 
		601.8,691.2 	"/>
	<polygon fill="#FFFFFF" stroke="#000000" stroke-miterlimit="10" points="844.4,1100.2 844.4,964.2 1109.3,964.2 1109.3,857.2 
		844.4,857.2 844.4,582.8 737.4,582.8 737.4,1100.2 844.4,1100.2 	"/>
	<polygon fill="#FFFFFF" stroke="#000000" stroke-miterlimit="10" points="575.2,966.9 575.2,828.3 718.8,828.3 718.8,721.3 
		575.2,721.3 575.2,582.8 468.2,582.8 468.2,721.3 334.8,721.3 334.8,828.3 468.2,828.3 468.2,966.9 575.2,966.9 	"/>
	<polygon fill="#FFFFFF" stroke="#000000" stroke-miterlimit="10" points="1135.8,1102.4 1135.8,1240.9 1242.8,1240.9 
		1242.8,1102.4 1376.2,1102.4 1376.2,995.4 1242.8,995.4 1242.8,856.9 1135.8,856.9 1135.8,995.4 1002.2,995.4 1002.2,1102.4 
		1135.8,1102.4 	"/>
	<polygon fill="#FFFFFF" stroke="#000000" stroke-miterlimit="10" points="976.2,175.2 869.2,175.2 869.2,282.2 976.2,282.2 
		976.2,175.2 	"/>
	<polygon fill="#FFFFFF" stroke="#000000" stroke-miterlimit="10" points="708.8,38.5 601.8,38.5 601.8,145.5 708.8,145.5 
		708.8,38.5 	"/>
	<polygon fill="#FFFFFF" stroke="#000000" stroke-miterlimit="10" points="575.2,38.5 468.2,38.5 468.2,145.5 575.2,145.5 
		575.2,38.5 	"/>
	<polygon fill="#FFFFFF" stroke="#000000" stroke-miterlimit="10" points="468.9,172 468.9,201.9 468.2,201.9 468.2,308.9 
		334.8,308.9 334.8,416 575.2,416 575.2,279 708.1,279 708.1,172 468.9,172 	"/>
	<polygon fill="#FFFFFF" stroke="#000000" stroke-miterlimit="10" points="1376.2,967.2 1376.2,720.8 1239.3,720.8 1239.3,584.7 
		1132.2,584.7 1132.2,829.8 1162.2,829.8 1162.2,830.4 1269.2,830.4 1269.2,967.2 1376.2,967.2 	"/>
	<polygon fill="#FFFFFF" stroke="#000000" stroke-miterlimit="10" points="574,552.7 574,445.7 334.8,445.7 334.8,552.7 574,552.7 	
		"/>
	<polygon fill="#FFFFFF" stroke="#000000" stroke-miterlimit="10" points="1109.2,39.8 1108.8,39.8 1108.8,38.5 735.7,38.5 
		735.7,39.7 735.3,39.7 735.3,417.9 842.3,417.9 842.3,416 1109.2,416 1109.2,39.8 	"/>
	<polygon fill="#FFFFFF" stroke="#000000" stroke-miterlimit="10" points="1002.2,145.5 842.2,145.5 842.2,308.9 1002.2,308.9 
		1002.2,145.5 	"/>
	<polygon fill="#FFFFFF" stroke="#000000" stroke-miterlimit="10" points="601.7,1240.4 603,1240.4 603,1240.9 842.2,1240.9 
		842.2,1131 707.1,1131 707.1,858.1 601.7,858.1 601.7,1240.4 	"/>
</g>
</svg>
